HIERARCHY
ROOT Hips
{
	OFFSET 0.000000 0.000000 0.000000 
	CHANNELS 6 Xposition Yposition Zposition Zrotation Yrotation Xrotation
	JOINT LeftUpLeg
	{
		OFFSET 1.363060 -1.794630 0.839290 
		CHANNELS 3 Zrotation Yrotation Xrotation
		JOINT LeftLeg
		{
			OFFSET 2.448110 -6.726130 0.000000 
			CHANNELS 3 Zrotation Yrotation Xrotation
			JOINT LeftFoot
			{
				OFFSET 2.562200 -7.039590 0.000000 
				CHANNELS 3 Zrotation Yrotation Xrotation
				JOINT LeftToeBase
				{
					OFFSET 0.157640 -0.433110 2.322550 
					CHANNELS 3 Zrotation Yrotation Xrotation
					End Site
					{
						OFFSET 0.000000 0.000000 0.000000 
					}
				}
			}
		}
	}
	JOINT RightUpLeg
	{
		OFFSET -1.305520 -1.794630 0.839290 
		CHANNELS 3 Zrotation Yrotation Xrotation
		JOINT RightLeg
		{
			OFFSET -2.542530 -6.985550 0.000000 
			CHANNELS 3 Zrotation Yrotation Xrotation
			JOINT RightFoot
			{
				OFFSET -2.568260 -7.056230 0.000000 
				CHANNELS 3 Zrotation Yrotation Xrotation
				JOINT RightToeBase
				{
					OFFSET -0.164730 -0.452590 2.363150 
					CHANNELS 3 Zrotation Yrotation Xrotation
					End Site
					{
						OFFSET 0.000000 0.000000 0.000000 
					}
				}
			}
		}
	}
	JOINT Spine
	{
		OFFSET 0.028270 2.035590 -0.193380 
		CHANNELS 3 Zrotation Yrotation Xrotation
		JOINT Spine1
		{
			OFFSET 0.056720 2.048850 -0.042750 
			CHANNELS 3 Zrotation Yrotation Xrotation
			JOINT Neck1
			{
				OFFSET -0.054170 1.746240 0.172020 
				CHANNELS 3 Zrotation Yrotation Xrotation
				JOINT Head
				{
					OFFSET 0.104070 1.761360 -0.123970 
					CHANNELS 3 Zrotation Yrotation Xrotation
					End Site
					{
						OFFSET 0.000000 0.000000 0.000000 
					}
				}
			}
			JOINT LeftArm
			{
				OFFSET 3.362410 1.200890 -0.311210 
				CHANNELS 3 Zrotation Yrotation Xrotation
				JOINT LeftForeArm
				{
					OFFSET 4.983000 -0.000000 -0.000000 
					CHANNELS 3 Zrotation Yrotation Xrotation
					JOINT LeftHand
					{
						OFFSET 3.483560 -0.000000 -0.000000 
						CHANNELS 3 Zrotation Yrotation Xrotation
						JOINT LeftHandIndex1
						{
							OFFSET 0.715260 -0.000000 -0.000000 
							CHANNELS 3 Zrotation Yrotation Xrotation
							End Site
							{
								OFFSET 0.000000 0.000000 0.000000 
							}
						}
					}
				}
			}
			JOINT RightArm
			{
				OFFSET -3.136600 1.374050 -0.404650 
				CHANNELS 3 Zrotation Yrotation Xrotation
				JOINT RightForeArm
				{
					OFFSET -5.241900 -0.000000 -0.000000 
					CHANNELS 3 Zrotation Yrotation Xrotation
					JOINT RightHand
					{
						OFFSET -3.444170 -0.000000 -0.000000 
						CHANNELS 3 Zrotation Yrotation Xrotation
						JOINT RightHandIndex1
						{
							OFFSET -0.622530 -0.000000 -0.000000 
							CHANNELS 3 Zrotation Yrotation Xrotation
							End Site
							{
								OFFSET 0.000000 0.000000 0.000000 
							}
						}
					}
				}
			}
		}
	}
}
MOTION
Frames: 15
Frame Time: 0.041667
8.550090 17.671235 22.535667 -176.649365 -2.334299 -177.693088 -15.682786 -0.494971 -8.319307 1.951574 10.325278 27.758958 0.639198 -9.997504 -13.575032 0.607100 4.987400 13.872500 16.975848 -4.462009 -18.072559 -6.975491 -16.177981 49.621016 -0.381028 -0.591479 -11.713896 -0.201500 2.890100 -7.972900 1.670334 3.290753 -1.869841 3.722123 1.630031 -0.134776 2.428316 0.030245 21.331317 2.445300 -1.988000 12.530900 -91.267291 2.207646 12.770661 14.229728 -24.405399 -2.966926 0.446721 1.043420 -1.134686 -7.125000 0.000000 0.000000 82.939272 0.916623 12.204580 -17.113280 26.091615 -4.151874 0.017380 -0.143743 -7.570865 7.125000 0.000000 0.000000 
8.520900 17.674523 22.545231 -176.873259 -1.963827 -177.672621 -16.018242 -0.021062 -8.317919 1.881579 10.206405 27.352819 0.685537 -10.138715 -14.069457 0.463100 4.365100 12.106000 16.212752 -4.208035 -19.487914 -7.605934 -16.625454 51.905858 -0.304808 -0.308278 -9.762168 -0.205300 2.917400 -8.049000 1.631609 3.281163 -1.698339 3.808596 1.607159 0.150878 2.287079 0.039627 21.472940 2.338900 -1.952900 12.848500 -91.205968 1.519733 12.199149 14.046064 -24.155102 -2.901645 0.448957 1.027395 -0.689516 -7.125000 0.000000 0.000000 83.039989 1.747601 11.885131 -17.327158 26.340638 -4.242812 0.013672 -0.139258 -7.357400 7.125000 0.000000 0.000000 
8.485433 17.673029 22.557186 -176.925427 -1.518209 -177.732415 -16.223186 0.442149 -8.195976 1.809029 10.077604 26.919797 0.688470 -10.066350 -14.107013 0.462300 4.361200 12.095100 15.571679 -3.872227 -20.899513 -8.276877 -17.059504 54.273022 -0.246610 0.138535 -7.436407 -0.123500 2.265600 -6.240200 1.598508 3.267311 -1.576146 3.742258 1.589455 0.284593 2.199269 0.094198 21.454133 2.286100 -1.909200 12.941900 -91.145544 1.173292 11.512752 13.941951 -23.998350 -2.860327 0.437840 1.007710 0.326989 -7.125000 0.000000 0.000000 83.099160 2.126565 11.913714 -17.638535 26.728395 -4.383577 0.010689 -0.137222 -7.372365 7.125000 0.000000 0.000000 
8.457239 17.680002 22.565654 -176.973485 -0.932875 -177.707651 -16.417422 0.995774 -8.113009 1.719394 9.904779 26.356379 0.660759 -9.938019 -13.830574 0.503600 4.549000 12.626700 14.956385 -3.340894 -22.468782 -8.980219 -17.465777 56.693335 -0.196141 0.410732 -5.043464 -0.035000 1.208000 -3.321200 1.553558 3.386669 -1.539293 3.673290 1.649017 0.283511 2.156071 0.125247 21.369483 2.253500 -1.887200 12.852800 -90.922374 1.361132 12.611989 13.966201 -24.037370 -2.871015 0.456067 1.016986 -1.625775 -7.125000 0.000000 0.000000 83.115733 1.993032 12.082878 -18.078787 27.286650 -4.589255 0.011854 -0.136398 -7.753242 7.125000 0.000000 0.000000 
8.436516 17.694448 22.570835 -177.295859 -0.466318 -177.711705 -16.862330 1.666543 -8.043333 1.622524 9.723340 25.760183 0.627380 -9.532645 -13.474050 0.474600 4.418300 12.256500 14.072325 -2.921627 -24.100819 -9.745967 -17.862272 59.270675 -0.171300 0.588766 -3.093727 -0.004600 0.438600 -1.205200 1.501619 3.443408 -1.548637 3.809020 1.676896 0.117794 2.155778 0.187274 21.390306 2.249500 -1.872500 12.812200 -90.681143 1.579868 13.043886 13.926115 -23.987024 -2.860791 0.463594 1.045374 -1.791852 -7.125000 0.000000 0.000000 83.109040 1.744770 12.152971 -18.505185 27.815147 -4.790892 0.011843 -0.135596 -7.842078 7.125000 0.000000 0.000000 
8.417886 17.713676 22.578406 -177.801201 -0.190236 -177.778150 -17.465603 2.314294 -7.901859 1.524820 9.525791 25.112161 0.669614 -9.857438 -13.977470 0.212200 2.965600 8.183000 12.994243 -2.730474 -25.731998 -10.582206 -18.252602 62.026800 -0.162255 0.663275 -1.961300 -0.001300 -0.236100 0.648600 1.449636 3.308523 -1.539297 4.055114 1.604590 -0.066120 2.155866 0.358760 21.388307 2.269900 -1.816500 12.772500 -90.610254 1.656956 12.509013 13.826266 -23.868217 -2.841146 0.519929 1.058730 -0.802182 -7.125000 0.000000 0.000000 83.061021 1.635700 12.436246 -18.856940 28.240842 -4.957872 0.011249 -0.133770 -7.895156 7.125000 0.000000 0.000000 
8.397563 17.719653 22.587173 -178.209914 0.152899 -177.854611 -18.027668 2.822001 -7.683035 1.453660 9.314073 24.447874 0.451430 -10.184653 -11.765416 0.980600 6.303300 17.667100 12.033957 -2.627982 -27.450657 -11.503849 -18.630664 64.995535 -0.146751 0.516569 -1.585215 -0.014100 -0.767300 2.108800 1.416539 3.206947 -1.470285 4.299486 1.699435 -0.039203 2.085740 0.598538 21.304359 2.253700 -1.717100 12.693100 -90.678950 1.658577 11.838255 13.805350 -23.845913 -2.837184 0.530600 1.037956 0.004388 -7.125000 0.000000 0.000000 82.942527 1.708540 13.043948 -19.202322 28.653995 -5.122335 0.014845 -0.128424 -8.286712 7.125000 0.000000 0.000000 
8.377139 17.718856 22.592553 -178.584357 0.492574 -177.981802 -18.498575 3.205324 -7.349516 1.326816 9.099069 23.733670 0.616103 -9.818039 -13.510969 0.238200 3.141100 8.671900 11.116834 -2.641068 -29.109340 -12.486723 -18.981445 68.096453 -0.142106 0.469954 -1.746754 -0.037800 -1.255200 3.451100 1.432410 2.973119 -1.418751 4.658895 1.576180 -0.015471 1.961703 0.972969 21.197272 2.219100 -1.575500 12.515300 -90.762034 1.898894 11.719553 13.860095 -23.921882 -2.848420 0.483574 1.026022 -0.429478 -7.125000 0.000000 0.000000 82.740868 1.586519 13.808460 -19.610391 29.145821 -5.321526 0.019496 -0.122298 -8.496896 7.125000 0.000000 0.000000 
8.358211 17.719255 22.596439 -179.150737 0.650815 -178.191979 -19.287766 3.350314 -6.811787 1.256302 8.885761 23.065472 0.406106 -9.838795 -11.267371 0.959400 6.236800 17.473000 9.954710 -2.818457 -30.740669 -13.540890 -19.299069 71.361153 -0.163325 0.734058 -2.206693 -0.105000 -2.089800 5.753900 1.148315 3.171269 -1.103282 4.161238 1.676208 0.559213 2.013107 0.684436 21.237820 2.171200 -1.602500 12.818100 -89.823105 0.862663 13.315216 13.743105 -23.733106 -2.793593 0.452074 1.040391 -1.643069 -7.125000 0.000000 0.000000 83.304732 2.388617 13.070044 -19.976929 29.578764 -5.507861 0.014601 -0.128942 -8.378440 7.125000 0.000000 0.000000 
8.343665 17.728122 22.603412 -179.400359 0.663145 -178.448075 -19.621929 3.417081 -6.184625 1.137697 8.655377 22.322317 0.497383 -9.402270 -12.270328 0.427700 4.197100 11.632000 9.215740 -2.942964 -32.367697 -14.646169 -19.566431 74.720451 -0.161308 0.612936 -2.906275 -0.136400 -2.380200 6.557600 1.119022 3.008420 -1.108718 4.280957 1.599179 0.281036 2.085266 0.739498 21.161899 2.212300 -1.591300 12.630800 -89.619370 1.080606 13.555942 13.657220 -23.620710 -2.769054 0.469111 1.066700 -1.753729 -7.125000 0.000000 0.000000 83.274603 2.072336 13.220226 -20.213191 29.867605 -5.632711 0.010344 -0.136500 -8.493499 7.125000 0.000000 0.000000 
8.332806 17.740475 22.607696 -179.450915 0.696311 -178.640252 -19.722397 3.666257 -5.619369 1.030310 8.385718 21.484601 0.484039 -9.364587 -12.138921 0.498300 4.525500 12.560100 8.740982 -2.978790 -34.077876 -15.797683 -19.778334 78.163994 -0.125016 -0.023058 -3.886491 -0.096500 -2.003800 5.516000 1.112650 2.893070 -1.081135 4.359635 1.546723 0.132153 2.158182 0.734782 21.134871 2.250500 -1.597600 12.559600 -89.441624 1.024685 13.423212 13.480033 -23.371212 -2.708516 0.489292 1.044068 -1.258579 -7.125000 0.000000 0.000000 83.314085 2.045649 13.236351 -20.481363 30.179608 -5.768845 0.009073 -0.133919 -8.758331 7.125000 0.000000 0.000000 
8.318858 17.754722 22.600324 -179.547095 0.712931 -178.863960 -19.885624 4.159202 -5.010540 0.921217 8.074983 20.532812 0.431704 -9.411015 -11.574090 0.552400 4.761000 13.228000 8.179542 -3.206317 -35.750986 -16.970572 -19.925541 81.632573 -0.117313 -0.398727 -5.117102 -0.056200 -1.529600 4.207300 1.076820 2.771647 -1.002102 4.334109 1.490971 0.173463 2.007132 0.816704 21.228808 2.138200 -1.568700 12.571600 -89.113009 0.954123 13.455288 13.395407 -23.242661 -2.675172 0.490497 1.011805 -0.780727 -7.125000 0.000000 0.000000 83.416423 2.070723 13.254127 -20.859814 30.617892 -5.961308 0.005363 -0.121471 -9.230883 7.125000 0.000000 0.000000 
8.302420 17.771459 22.588469 -179.480073 0.682632 -179.197826 -19.878313 4.573755 -4.169631 0.809004 7.732297 19.489347 0.351227 -9.291975 -10.590292 0.658400 5.189900 14.451100 7.797009 -3.521625 -37.247424 -18.137611 -20.008858 85.059055 -0.145373 -0.375198 -6.111770 -0.025300 -1.027100 2.823300 1.130416 2.574999 -0.911508 4.442717 1.396638 0.207389 1.866430 1.045987 21.449861 2.070800 -1.514900 12.641500 -89.026281 0.934653 13.200695 13.295939 -23.111489 -2.644344 0.504655 1.005406 -0.139396 -7.125000 0.000000 0.000000 83.214004 2.014039 13.645736 -21.169708 30.973002 -6.120227 0.007649 -0.111053 -9.850691 7.125000 0.000000 0.000000 
8.284388 17.789989 22.575318 -179.563735 0.765007 -179.547413 -20.051635 4.770888 -3.213988 0.685609 7.380174 18.413813 0.353373 -8.940164 -10.574796 0.516500 4.606400 12.789200 7.188399 -3.708177 -38.758106 -19.319321 -20.018114 88.516669 -0.180872 -0.157192 -6.616549 -0.011700 -0.698500 1.919500 1.223953 2.415288 -0.858683 4.803589 1.314712 0.119948 1.848621 1.321516 21.648403 2.121000 -1.468200 12.687300 -89.226666 0.930212 13.016289 13.076037 -22.826466 -2.576394 0.525330 1.006787 -0.029350 -7.125000 0.000000 0.000000 82.768705 1.801748 14.064521 -21.408081 31.245300 -6.245346 0.011092 -0.107683 -10.146406 7.125000 0.000000 0.000000 
8.266953 17.810213 22.561071 -179.676003 0.802405 -179.796311 -20.282489 4.877603 -2.301154 0.571961 7.007148 17.295013 0.306054 -8.535442 -9.874114 0.605500 4.981000 13.854300 6.532765 -3.854698 -40.349466 -20.494382 -19.956056 91.952928 -0.217134 0.121864 -6.922954 -0.004800 -0.447000 1.228300 1.270100 2.321910 -0.799150 5.029848 1.267355 0.109968 1.737346 1.484889 21.759822 2.094000 -1.450300 12.682900 -89.334685 0.802104 12.905667 12.814309 -22.481642 -2.496085 0.555957 1.005079 0.003760 -7.125000 0.000000 0.000000 82.481360 1.686508 14.064929 -21.543207 31.404517 -6.319768 0.010959 -0.109600 -10.088429 7.125000 0.000000 0.000000 
